<?xml version="1.0" encoding="UTF-8"?>
<svg width="23px" height="23px" viewBox="0 0 23 23" version="1.1" xmlns="http://www.w3.org/2000/svg" xmlns:xlink="http://www.w3.org/1999/xlink">
    <!-- Generator: Sketch 46.2 (44496) - http://www.bohemiancoding.com/sketch -->
    <title>Shape</title>
    <desc>Created with Sketch.</desc>
    <defs></defs>
    <g id="Organisations-with-Annotations" stroke="none" stroke-width="1" fill="none" fill-rule="evenodd">
        <g id="Organisations-Archive-View" transform="translate(-394.000000, -240.000000)" fill-rule="nonzero" fill="#7F8DAA">
            <g id="Group" transform="translate(375.000000, 226.000000)">
                <path d="M42,35.8534594 L35.6237624,29.4881822 C38.7524752,25.7718092 38.5940594,20.2367856 35.1089109,16.7576278 C31.4257426,13.0807907 25.4455446,13.0807907 21.7623762,16.7576278 C18.0792079,20.434465 18.0792079,26.4043833 21.7623762,30.0812205 C23.5841584,31.8998711 26.039604,32.8487323 28.4554455,32.8487323 C30.6336634,32.8487323 32.7722772,32.0975505 34.5544554,30.6347228 L40.9306931,37 L42,35.8534594 Z M22.8712871,28.9742157 C19.8217822,25.9299527 19.8217822,20.9484315 22.8712871,17.9041685 C24.4158416,16.362269 26.3960396,15.6110872 28.4158416,15.6110872 C30.4356436,15.6110872 32.4554455,16.362269 33.960396,17.9041685 C37.009901,20.9484315 37.009901,25.9299527 33.960396,28.9742157 C30.9108911,32.0184787 25.9207921,32.0184787 22.8712871,28.9742157 Z" id="Shape"></path>
            </g>
        </g>
    </g>
</svg>